
<svg width="40" height="24" viewBox="0 0 40 24" fill="none" xmlns="http://www.w3.org/2000/svg">
  <rect width="40" height="24" rx="4" fill="white"/>
  <path d="M35 17.3942H33.4415L32.2453 15.7182H28.9094L28.326 17.3942H25.723L28.9094 9.29412H32.0717L35 17.3942ZM29.6664 14.0423H31.4887L30.6019 12.0658L29.6664 14.0423Z" fill="#006FCF"/>
  <path d="M24.5754 17.3942L22.4568 13.2706L20.3382 17.3942H17.8829L17.2995 13.0118L15.0075 17.3942H12.4055L16.1066 9.29412H19.2689L19.8523 13.4823L21.8242 9.29412H25.2055L28.8626 17.3942H24.5754Z" fill="#006FCF"/>
  <path d="M11.5656 13.3765C11.5656 14.7059 10.7722 15.6118 8.78657 15.6118H5.53125V11.247H8.78657C10.7722 11.1412 11.5656 12.0471 11.5656 13.3765ZM9.13437 17.3942C11.6124 17.3942 14.1611 16.0647 14.1611 13.4824C14.1611 11.7 12.8213 10.5882 11.099 10.5882H5.53125V6.75883H11.052C12.6344 6.75883 14.0677 7.55295 14.0677 9.38824C14.0677 10.6118 13.5311 11.4059 12.9477 11.7706C13.8345 12.1882 14.1611 13.0941 14.1611 13.4824" fill="#006FCF"/>
</svg>
