
<svg width="40" height="24" viewBox="0 0 40 24" fill="none" xmlns="http://www.w3.org/2000/svg">
  <rect width="40" height="24" rx="4" fill="white"/>
  <path d="M24.2688 6H15.7312V18H24.2688V6Z" fill="#FF5F00"/>
  <path d="M16.4959 12C16.4959 9.51472 17.6024 7.29472 19.3987 6C18.1321 5.004 16.5411 4.5 14.9001 4.5C10.8073 4.5 7.5 7.80804 7.5 12C7.5 16.192 10.8073 19.5 14.9001 19.5C16.5411 19.5 18.1321 18.996 19.3987 18C17.6024 16.6548 16.4959 14.4852 16.4959 12Z" fill="#EB001B"/>
  <path d="M32.5 12C32.5 16.192 29.1927 19.5 25.0999 19.5C23.4589 19.5 21.8679 18.996 20.6013 18C22.447 16.7052 23.5041 14.4852 23.5041 12C23.5041 9.51472 22.3976 7.29472 20.6013 6C21.8679 5.004 23.4589 4.5 25.0999 4.5C29.1927 4.5 32.5 7.85844 32.5 12Z" fill="#F79E1B"/>
</svg>
