
<svg width="40" height="24" viewBox="0 0 40 24" fill="none" xmlns="http://www.w3.org/2000/svg">
  <rect width="40" height="24" rx="4" fill="white"/>
  <path d="M18.8647 16.4H16.9378L18.4227 7.6H20.3496L18.8647 16.4Z" fill="#00579F"/>
  <path d="M27.2191 7.784C26.7864 7.616 26.1359 7.44 25.326 7.44C23.3295 7.44 21.9106 8.488 21.9009 10.008C21.8913 11.12 22.9336 11.752 23.7242 12.128C24.534 12.512 24.7982 12.76 24.7982 13.096C24.7886 13.608 24.1574 13.84 23.5743 13.84C22.7645 13.84 22.3318 13.704 21.6813 13.432L21.3974 13.304L21.0943 14.92C21.6088 15.144 22.5747 15.336 23.5743 15.344C25.6966 15.344 27.0866 14.312 27.0962 12.696C27.1058 11.8 26.4649 11.104 25.2607 10.536C24.5142 10.168 24.0525 9.912 24.0525 9.52C24.0621 9.16 24.4468 8.8 25.2703 8.8C25.9592 8.784 26.4553 8.952 26.8303 9.128L27.0291 9.224L27.3418 7.672L27.2191 7.784Z" fill="#00579F"/>
  <path d="M31.0645 7.6H29.6553C29.1935 7.6 28.8326 7.752 28.6338 8.216L25.7145 16.4H27.8408C27.8408 16.4 28.1728 15.48 28.2474 15.28H31.1774C31.2424 15.536 31.4221 16.4 31.4221 16.4H33.335L31.0645 7.6ZM28.824 13.736C29.017 13.248 29.7923 11.2 29.7923 11.2C29.7827 11.216 29.9431 10.776 30.0368 10.52L30.1595 11.144C30.1595 11.144 30.6212 13.296 30.7056 13.736H28.824V13.736Z" fill="#00579F"/>
  <path d="M14.6429 7.6L12.6368 13.448L12.3819 12.088C11.9492 10.688 10.5208 9.168 8.9398 8.384L10.7796 16.392H13.0107L16.2337 7.6H14.6429Z" fill="#00579F"/>
  <path d="M11.4971 8.352H8.09244L8.03711 8.528C10.7508 9.296 12.5522 11.072 13.3043 13.24L12.3818 8.544C12.2399 8.072 11.9175 8.368 11.4971 8.352Z" fill="#FAA61A"/>
</svg>
